<svg xmlns="http://www.w3.org/2000/svg" width="1200" height="460" viewBox="0 0 1200 460"><defs><linearGradient id="bg" x2="1" y2="1"><stop stop-color="#0b1020"/><stop offset="1" stop-color="#17103a"/></linearGradient><linearGradient id="a" x2="1"><stop stop-color="#8b5cf6"/><stop offset="1" stop-color="#22d3ee"/></linearGradient></defs><rect width="1200" height="460" rx="28" fill="url(#bg)"/><text x="64" y="74" fill="#fff" font-family="sans-serif" font-size="34" font-weight="700">SnapList AI — Photo to Multi-Market Listing</text><text x="64" y="108" fill="#94a3b8" font-family="sans-serif" font-size="17">Camera → Vision AI → Market price → Editable copy → Official APIs / Assisted drafts</text><g font-family="sans-serif" text-anchor="middle"><g fill="#151f34" stroke="#52627b"><rect x="55" y="170" width="160" height="150" rx="20"/><rect x="255" y="170" width="160" height="150" rx="20"/><rect x="455" y="170" width="160" height="150" rx="20"/><rect x="655" y="170" width="160" height="150" rx="20"/><rect x="855" y="145" width="290" height="200" rx="20"/></g><g fill="#fff" font-size="20" font-weight="700"><text x="135" y="225">Camera / PWA</text><text x="335" y="225">AI Gateway</text><text x="535" y="225">Price Engine</text><text x="735" y="225">Draft Editor</text><text x="1000" y="195">Marketplace Connectors</text></g><g fill="#94a3b8" font-size="15"><text x="135" y="265">iPhone・Web</text><text x="335" y="265">API / CLI / Mock</text><text x="535" y="265">median・range</text><text x="735" y="265">title・detail</text><text x="1000" y="238">Own Store · eBay · Yahoo Shopping</text><text x="1000" y="272">Mercari · Rakuma · Yahoo Auction</text><text x="1000" y="306">official API or assisted export</text></g><g stroke="url(#a)" stroke-width="6" fill="none"><path d="M215 245h40"/><path d="M415 245h40"/><path d="M615 245h40"/><path d="M815 245h40"/></g></g><rect x="55" y="380" width="1090" height="8" rx="4" fill="url(#a)"/><text x="600" y="420" text-anchor="middle" fill="#c4b5fd" font-family="sans-serif" font-size="16">Safe by design: no password storage, no CAPTCHA bypass, no unofficial private APIs</text></svg>
