<svg xmlns="http://www.w3.org/2000/svg" viewBox="0 0 512 512"><defs><linearGradient id="g" x1="0" y1="0" x2="1" y2="1"><stop stop-color="#8b5cf6"/><stop offset="1" stop-color="#22d3ee"/></linearGradient></defs><rect width="512" height="512" rx="128" fill="#0b1220"/><path d="M132 166h58l20-34h92l20 34h58a48 48 0 0 1 48 48v166a48 48 0 0 1-48 48H132a48 48 0 0 1-48-48V214a48 48 0 0 1 48-48Z" fill="url(#g)"/><circle cx="256" cy="292" r="86" fill="#0b1220"/><circle cx="256" cy="292" r="52" fill="#fff" opacity=".92"/><path d="m333 100 19 38 42 6-31 30 8 42-38-20-38 20 7-42-30-30 42-6Z" fill="#fff"/></svg>
